<svg width="74" height="28" viewBox="0 0 74 28" fill="none" xmlns="http://www.w3.org/2000/svg">
	<path
		d="M11.983 21.179C10.9517 21.179 10.0355 21.0021 9.23438 20.6484C8.4375 20.2905 7.81108 19.7983 7.35511 19.1719C6.89915 18.5455 6.66903 17.8253 6.66477 17.0114H10.2443C10.2486 17.2628 10.3253 17.4886 10.4744 17.6889C10.6278 17.8849 10.8366 18.0384 11.1009 18.1491C11.3651 18.2599 11.6676 18.3153 12.0085 18.3153C12.3366 18.3153 12.6264 18.2578 12.8778 18.1428C13.1293 18.0234 13.3253 17.8594 13.4659 17.6506C13.6065 17.4418 13.6747 17.2031 13.6705 16.9347C13.6747 16.6705 13.5938 16.4361 13.4276 16.2315C13.2656 16.027 13.0376 15.8672 12.7436 15.7521C12.4496 15.6371 12.1108 15.5795 11.7273 15.5795H10.3977V13.125H11.7273C12.081 13.125 12.392 13.0675 12.6605 12.9524C12.9332 12.8374 13.1442 12.6776 13.2933 12.473C13.4467 12.2685 13.5213 12.0341 13.517 11.7699C13.5213 11.5142 13.4595 11.2884 13.3317 11.0923C13.2038 10.8963 13.0249 10.7429 12.7947 10.6321C12.5689 10.5213 12.3068 10.4659 12.0085 10.4659C11.6847 10.4659 11.3949 10.5234 11.1392 10.6385C10.8878 10.7536 10.6896 10.9134 10.5447 11.1179C10.3999 11.3224 10.3253 11.5568 10.321 11.821H6.92045C6.92472 11.0199 7.14418 10.3125 7.57884 9.69886C8.01776 9.08523 8.61861 8.60369 9.38139 8.25426C10.1442 7.90483 11.0199 7.73011 12.0085 7.73011C12.9759 7.73011 13.8303 7.89418 14.5717 8.2223C15.3175 8.55043 15.8991 9.00213 16.3168 9.57741C16.7386 10.1484 16.9474 10.8026 16.9432 11.5398C16.9517 12.2727 16.7003 12.8736 16.1889 13.3423C15.6818 13.8111 15.0384 14.0881 14.2585 14.1733V14.2756C15.3153 14.3906 16.1101 14.7145 16.6428 15.2472C17.1754 15.7756 17.4375 16.4403 17.429 17.2415C17.4332 18.0085 17.2031 18.6882 16.7386 19.2805C16.2784 19.8729 15.6371 20.3374 14.8146 20.674C13.9964 21.0107 13.0526 21.179 11.983 21.179Z"
		fill="#D37E00"
	/>
	<path
		d="M17.2765 9.36364H21.2083L23.9128 15.9545H24.0492L26.7538 9.36364H30.6856V21H27.5947V14.2727H27.5038L24.9128 20.9091H23.0492L20.4583 14.2273H20.3674V21H17.2765V9.36364ZM34.9927 21.1591C34.0458 21.1591 33.2352 20.9716 32.5609 20.5966C31.8867 20.2178 31.3696 19.6913 31.0098 19.017C30.6499 18.339 30.47 17.553 30.47 16.6591C30.47 15.7652 30.6499 14.9811 31.0098 14.3068C31.3696 13.6288 31.8867 13.1023 32.5609 12.7273C33.2352 12.3485 34.0458 12.1591 34.9927 12.1591C35.9397 12.1591 36.7503 12.3485 37.4246 12.7273C38.0988 13.1023 38.6158 13.6288 38.9757 14.3068C39.3355 14.9811 39.5155 15.7652 39.5155 16.6591C39.5155 17.553 39.3355 18.339 38.9757 19.017C38.6158 19.6913 38.0988 20.2178 37.4246 20.5966C36.7503 20.9716 35.9397 21.1591 34.9927 21.1591ZM35.0155 18.8409C35.2806 18.8409 35.5098 18.7519 35.703 18.5739C35.8961 18.3958 36.0458 18.142 36.1518 17.8125C36.2579 17.483 36.3109 17.0909 36.3109 16.6364C36.3109 16.178 36.2579 15.786 36.1518 15.4602C36.0458 15.1307 35.8961 14.8769 35.703 14.6989C35.5098 14.5208 35.2806 14.4318 35.0155 14.4318C34.7352 14.4318 34.4946 14.5208 34.2939 14.6989C34.0931 14.8769 33.9397 15.1307 33.8336 15.4602C33.7276 15.786 33.6746 16.178 33.6746 16.6364C33.6746 17.0909 33.7276 17.483 33.8336 17.8125C33.9397 18.142 34.0931 18.3958 34.2939 18.5739C34.4946 18.7519 34.7352 18.8409 35.0155 18.8409ZM49.3709 9.36364V21H46.7346L42.53 14.8864H42.4618V21H39.3027V9.36364H41.9846L46.1209 15.4545H46.2118V9.36364H49.3709ZM53.6525 21.1591C52.7207 21.1591 51.9177 20.9811 51.2434 20.625C50.573 20.2652 50.0559 19.75 49.6923 19.0795C49.3324 18.4053 49.1525 17.5985 49.1525 16.6591C49.1525 15.7576 49.3343 14.9697 49.698 14.2955C50.0616 13.6212 50.5749 13.0966 51.2377 12.7216C51.9006 12.3466 52.6828 12.1591 53.5843 12.1591C54.2434 12.1591 54.84 12.2614 55.3741 12.4659C55.9082 12.6705 56.3646 12.9678 56.7434 13.358C57.1222 13.7443 57.4139 14.214 57.6184 14.767C57.823 15.3201 57.9252 15.9432 57.9252 16.6364V17.3636H50.1298V15.6364H55.0389C55.0351 15.3864 54.9707 15.1667 54.8457 14.9773C54.7245 14.7841 54.5597 14.6345 54.3514 14.5284C54.1468 14.4186 53.9139 14.3636 53.6525 14.3636C53.3987 14.3636 53.1658 14.4186 52.9536 14.5284C52.7415 14.6345 52.5711 14.7822 52.4423 14.9716C52.3173 15.161 52.251 15.3826 52.2434 15.6364V17.5C52.2434 17.7803 52.3021 18.0303 52.4196 18.25C52.537 18.4697 52.7055 18.642 52.9252 18.767C53.1449 18.892 53.4101 18.9545 53.7207 18.9545C53.9366 18.9545 54.1336 18.9242 54.3116 18.8636C54.4934 18.803 54.6487 18.7159 54.7775 18.6023C54.9063 18.4848 55.001 18.3447 55.0616 18.1818H57.9252C57.8268 18.7879 57.5938 19.3144 57.2264 19.7614C56.8589 20.2045 56.3722 20.5492 55.7661 20.7955C55.1639 21.0379 54.4593 21.1591 53.6525 21.1591ZM55.1955 9.36364H58.7182L60.9909 14.0909H61.0818L63.3546 9.36364H66.8773L62.6046 17.3409V21H59.4682V17.3409L55.1955 9.36364Z"
		fill="#FFFFFF"
	/>
</svg>
