<svg width="61" height="15" viewBox="0 0 61 15" fill="none" xmlns="http://www.w3.org/2000/svg">
	<path
		d="M5.98295 14.179C4.9517 14.179 4.03551 14.0021 3.23438 13.6484C2.4375 13.2905 1.81108 12.7983 1.35511 12.1719C0.899148 11.5455 0.669034 10.8253 0.664773 10.0114H4.24432C4.24858 10.2628 4.32528 10.4886 4.47443 10.6889C4.62784 10.8849 4.83665 11.0384 5.10085 11.1491C5.36506 11.2599 5.66761 11.3153 6.00852 11.3153C6.33665 11.3153 6.62642 11.2578 6.87784 11.1428C7.12926 11.0234 7.32528 10.8594 7.46591 10.6506C7.60653 10.4418 7.67472 10.2031 7.67045 9.93466C7.67472 9.67045 7.59375 9.43608 7.42756 9.23153C7.26563 9.02699 7.03764 8.86719 6.74361 8.75213C6.44957 8.63707 6.1108 8.57955 5.72727 8.57955H4.39773V6.125H5.72727C6.08097 6.125 6.39205 6.06747 6.66051 5.95241C6.93324 5.83736 7.14418 5.67756 7.29332 5.47301C7.44673 5.26847 7.52131 5.03409 7.51705 4.76989C7.52131 4.5142 7.45952 4.28835 7.33168 4.09233C7.20384 3.89631 7.02486 3.7429 6.79474 3.6321C6.56889 3.52131 6.30682 3.46591 6.00852 3.46591C5.68466 3.46591 5.39489 3.52344 5.1392 3.63849C4.88778 3.75355 4.68963 3.91335 4.54474 4.1179C4.39986 4.32244 4.32528 4.55682 4.32102 4.82102H0.920455C0.924716 4.01989 1.14418 3.3125 1.57884 2.69886C2.01776 2.08523 2.61861 1.60369 3.38139 1.25426C4.14418 0.904829 5.01989 0.730113 6.00852 0.730113C6.97585 0.730113 7.83026 0.894176 8.57173 1.2223C9.31747 1.55043 9.89915 2.00213 10.3168 2.57741C10.7386 3.14844 10.9474 3.80256 10.9432 4.53977C10.9517 5.27273 10.7003 5.87358 10.1889 6.34233C9.68182 6.81108 9.03835 7.08807 8.25852 7.1733V7.27557C9.31534 7.39062 10.1101 7.71449 10.6428 8.24716C11.1754 8.77557 11.4375 9.44034 11.429 10.2415C11.4332 11.0085 11.2031 11.6882 10.7386 12.2805C10.2784 12.8729 9.63707 13.3374 8.81463 13.674C7.99645 14.0107 7.05256 14.179 5.98295 14.179Z"
		fill="#D37E00"
	/>
	<path
		d="M11.2765 2.36364H15.2083L17.9128 8.95455H18.0492L20.7538 2.36364H24.6856V14H21.5947V7.27273H21.5038L18.9128 13.9091H17.0492L14.4583 7.22727H14.3674V14H11.2765V2.36364ZM28.9927 14.1591C28.0458 14.1591 27.2352 13.9716 26.5609 13.5966C25.8867 13.2178 25.3696 12.6913 25.0098 12.017C24.6499 11.339 24.47 10.553 24.47 9.65909C24.47 8.76515 24.6499 7.98106 25.0098 7.30682C25.3696 6.62879 25.8867 6.10227 26.5609 5.72727C27.2352 5.34848 28.0458 5.15909 28.9927 5.15909C29.9397 5.15909 30.7503 5.34848 31.4246 5.72727C32.0988 6.10227 32.6158 6.62879 32.9757 7.30682C33.3355 7.98106 33.5155 8.76515 33.5155 9.65909C33.5155 10.553 33.3355 11.339 32.9757 12.017C32.6158 12.6913 32.0988 13.2178 31.4246 13.5966C30.7503 13.9716 29.9397 14.1591 28.9927 14.1591ZM29.0155 11.8409C29.2806 11.8409 29.5098 11.7519 29.703 11.5739C29.8961 11.3958 30.0458 11.142 30.1518 10.8125C30.2579 10.483 30.3109 10.0909 30.3109 9.63636C30.3109 9.17803 30.2579 8.78598 30.1518 8.46023C30.0458 8.13068 29.8961 7.87689 29.703 7.69886C29.5098 7.52083 29.2806 7.43182 29.0155 7.43182C28.7352 7.43182 28.4946 7.52083 28.2939 7.69886C28.0931 7.87689 27.9397 8.13068 27.8336 8.46023C27.7276 8.78598 27.6746 9.17803 27.6746 9.63636C27.6746 10.0909 27.7276 10.483 27.8336 10.8125C27.9397 11.142 28.0931 11.3958 28.2939 11.5739C28.4946 11.7519 28.7352 11.8409 29.0155 11.8409ZM43.3709 2.36364V14H40.7346L36.53 7.88636H36.4618V14H33.3027V2.36364H35.9846L40.1209 8.45455H40.2118V2.36364H43.3709ZM47.6525 14.1591C46.7207 14.1591 45.9177 13.9811 45.2434 13.625C44.573 13.2652 44.0559 12.75 43.6923 12.0795C43.3324 11.4053 43.1525 10.5985 43.1525 9.65909C43.1525 8.75758 43.3343 7.9697 43.698 7.29545C44.0616 6.62121 44.5749 6.09659 45.2377 5.72159C45.9006 5.34659 46.6828 5.15909 47.5843 5.15909C48.2434 5.15909 48.84 5.26136 49.3741 5.46591C49.9082 5.67045 50.3646 5.9678 50.7434 6.35795C51.1222 6.74432 51.4139 7.21402 51.6184 7.76705C51.823 8.32008 51.9252 8.94318 51.9252 9.63636V10.3636H44.1298V8.63636H49.0389C49.0351 8.38636 48.9707 8.16667 48.8457 7.97727C48.7245 7.78409 48.5597 7.63447 48.3514 7.52841C48.1468 7.41856 47.9139 7.36364 47.6525 7.36364C47.3987 7.36364 47.1658 7.41856 46.9536 7.52841C46.7415 7.63447 46.5711 7.7822 46.4423 7.97159C46.3173 8.16098 46.251 8.38258 46.2434 8.63636V10.5C46.2434 10.7803 46.3021 11.0303 46.4196 11.25C46.537 11.4697 46.7055 11.642 46.9252 11.767C47.1449 11.892 47.4101 11.9545 47.7207 11.9545C47.9366 11.9545 48.1336 11.9242 48.3116 11.8636C48.4934 11.803 48.6487 11.7159 48.7775 11.6023C48.9063 11.4848 49.001 11.3447 49.0616 11.1818H51.9252C51.8268 11.7879 51.5938 12.3144 51.2264 12.7614C50.8589 13.2045 50.3722 13.5492 49.7661 13.7955C49.1639 14.0379 48.4593 14.1591 47.6525 14.1591ZM49.1955 2.36364H52.7182L54.9909 7.09091H55.0818L57.3546 2.36364H60.8773L56.6046 10.3409V14H53.4682V10.3409L49.1955 2.36364Z"
		fill="#FFFFFF"
	/>
</svg>
